HIERARCHY
ROOT locator2
{
  OFFSET 53.6172 30.1899 0.816905
  CHANNELS 6 Xposition Yposition Zposition Zrotation Xrotation Yrotation
  JOINT koshi
  {
    OFFSET 0 0 0
    CHANNELS 6 Xposition Yposition Zposition Zrotation Xrotation Yrotation
    JOINT sippo01
    {
      OFFSET 0 42.8363 -0.548134
      CHANNELS 6 Xposition Yposition Zposition Zrotation Xrotation Yrotation
      JOINT sippo02
      {
        OFFSET 0 44.0461 -3.28882
        CHANNELS 6 Xposition Yposition Zposition Zrotation Xrotation Yrotation
        JOINT sippo03
        {
          OFFSET 0 34.1929 -2.46662
          CHANNELS 6 Xposition Yposition Zposition Zrotation Xrotation Yrotation
          JOINT sippo04
          {
            OFFSET 0 30.0959 -1.75404
            CHANNELS 6 Xposition Yposition Zposition Zrotation Xrotation Yrotation
            JOINT sippo05
            {
              OFFSET 0 28.3637 -1.75404
              CHANNELS 6 Xposition Yposition Zposition Zrotation Xrotation Yrotation
              JOINT sippo06
              {
                OFFSET 0 31.6071 -3.2043
                CHANNELS 6 Xposition Yposition Zposition Zrotation Xrotation Yrotation
                End Site
                {
                  OFFSET 0 0 0
                }
              }
            }
          }
        }
      }
    }
    JOINT R_momo
    {
      OFFSET -27.891 13.5892 3.92723
      CHANNELS 6 Xposition Yposition Zposition Zrotation Xrotation Yrotation
      JOINT R_hiza
      {
        OFFSET 0 28.01 1.8232
        CHANNELS 6 Xposition Yposition Zposition Zrotation Xrotation Yrotation
        JOINT R_ashi
        {
          OFFSET 0 24.3992 -2.49174
          CHANNELS 6 Xposition Yposition Zposition Zrotation Xrotation Yrotation
          End Site
          {
            OFFSET 0 0 0
          }
        }
      }
    }
    JOINT L_momo
    {
      OFFSET 27.891 13.5892 3.92714
      CHANNELS 6 Xposition Yposition Zposition Zrotation Xrotation Yrotation
      JOINT L_hiza
      {
        OFFSET 0 28.0098 1.82319
        CHANNELS 6 Xposition Yposition Zposition Zrotation Xrotation Yrotation
        JOINT L_ashi
        {
          OFFSET 0 24.3992 -2.49171
          CHANNELS 6 Xposition Yposition Zposition Zrotation Xrotation Yrotation
          End Site
          {
            OFFSET 0 0 0
          }
        }
      }
    }
  }
  JOINT hara
  {
    OFFSET 0 2.15392 0
    CHANNELS 6 Xposition Yposition Zposition Zrotation Xrotation Yrotation
    JOINT mune
    {
      OFFSET 0 62.0609 0.472494
      CHANNELS 6 Xposition Yposition Zposition Zrotation Xrotation Yrotation
      JOINT R_kata
      {
        OFFSET 22.6695 9.65301 -5.3622
        CHANNELS 6 Xposition Yposition Zposition Zrotation Xrotation Yrotation
        JOINT R_hiji
        {
          OFFSET 0 25.813 1.69098
          CHANNELS 6 Xposition Yposition Zposition Zrotation Xrotation Yrotation
          JOINT R_te
          {
            OFFSET 0 28.5636 -0.966307
            CHANNELS 6 Xposition Yposition Zposition Zrotation Xrotation Yrotation
            End Site
            {
              OFFSET 0 0 0
            }
          }
        }
      }
      JOINT L_kata
      {
        OFFSET -22.6695 9.65298 -5.3622
        CHANNELS 6 Xposition Yposition Zposition Zrotation Xrotation Yrotation
        JOINT L_hiji
        {
          OFFSET 0 25.813 1.69102
          CHANNELS 6 Xposition Yposition Zposition Zrotation Xrotation Yrotation
          JOINT L_te
          {
            OFFSET 0 28.5636 -0.966295
            CHANNELS 6 Xposition Yposition Zposition Zrotation Xrotation Yrotation
            End Site
            {
              OFFSET 0 0 0
            }
          }
        }
      }
      JOINT kubi
      {
        OFFSET 0 23.1438 -0.944988
        CHANNELS 6 Xposition Yposition Zposition Zrotation Xrotation Yrotation
        JOINT atama
        {
          OFFSET 0 20.8625 4.12737
          CHANNELS 6 Xposition Yposition Zposition Zrotation Xrotation Yrotation
          JOINT ago
          {
            OFFSET 0 7.552 -7.58201
            CHANNELS 6 Xposition Yposition Zposition Zrotation Xrotation Yrotation
            End Site
            {
              OFFSET 0 0 0
            }
          }
        }
      }
    }
  }
}
MOTION
Frames:	6
Frame Time:	0.0333333
2.54524 25.4715 3.67013 -90 -3.50835e-015 -90 0 0 0 -177.417 0.120212 0.242441 -1.49012e-007 42.8363 -0.548136 -0.446348 -2.15144 4.76793 -9.24162e-007 44.0461 -3.28882 -0.106399 2.28747 0.861589 1.13248e-006 34.1929 -2.46661 6.48266 12.087 5.58921 7.80923e-006 30.0959 -1.75404 5.2822 14.6791 -3.58361 -8.15008e-006 28.3637 -1.75404 8.30282 12.7284 2.65804 1.10632e-005 31.6071 -3.20431 5.32888 7.86716 -12.7499 -27.891 13.5892 3.92723 120.123 -17.9858 -49.921 -3.7772e-006 28.01 1.8232 143.608 -86.4766 123.526 1.08853e-005 24.3992 -2.49173 -155.026 54.7019 -166.064 27.891 13.5892 3.92714 -89.4313 -18.3831 63.1137 -1.74241e-006 28.0098 1.82319 -3.17047 -57.8498 14.8102 -4.68008e-006 24.3992 -2.49173 136.781 72.8209 168.944 6.07684e-007 2.15392 -3.55271e-015 -3.77417 0.20313 -0.954998 -4.44089e-016 62.0609 0.472498 -6.68751e-011 -7.95139e-016 6.68728e-011 22.6695 9.653 -5.36221 -162.061 1.03506 40.794 -7.6294e-006 25.813 1.69098 179.77 -62.4611 176.258 3.17201e-009 28.5636 -0.966308 43.1389 8.86604 -106.174 -22.6695 9.65299 -5.3622 131.595 0.080815 -53.9078 1.42109e-014 25.813 1.69102 1.01593 -86.24 0.434094 -3.78464e-006 28.5636 -0.966296 -36.3016 22.3445 94.0029 1.04579e-011 23.1438 -0.944994 1.92631 0.191926 14.2308 -2.72671e-012 20.8625 4.12737 0.733397 -0.865772 13.9845 4.45876e-007 7.55201 -7.58201 -1.03885e-005 2.08128 1.03885e-005 
1.9749 25.0669 3.28184 -90 -3.50835e-015 -90 0 0 0 -177.365 0.211224 0.244143 -1.49012e-007 42.8363 -0.548136 -0.490437 -2.07686 4.90454 -9.47543e-007 44.0461 -3.28882 -0.743911 1.7815 0.926637 7.04734e-007 34.1929 -2.46661 5.41533 12.6023 6.41987 7.08766e-006 30.0959 -1.75404 4.59525 14.8628 -3.50182 -9.01501e-006 28.3637 -1.75404 7.68802 14.515 2.56591 9.81888e-006 31.6071 -3.20431 5.11715 8.04783 -12.9949 -27.891 13.5892 3.92723 120.666 -16.8351 -49.6115 -3.93644e-006 28.01 1.8232 143.608 -86.4766 123.526 1.08663e-005 24.3992 -2.49173 -154.365 55.7179 -166.606 27.891 13.5892 3.92714 -91.4407 -17.3657 62.5483 -1.43905e-006 28.0098 1.82319 -3.50844 -60.6788 14.8855 -4.58164e-006 24.3992 -2.49173 137.799 71.6572 168.246 6.07684e-007 2.15392 0 -4.22604 0.132019 -1.06079 1.33227e-015 62.0609 0.472498 -1.00178e-005 -1.78135e-012 1.00178e-005 22.6695 9.653 -5.36221 -160.651 1.25323 41.2027 -7.6294e-006 25.813 1.69098 179.78 -60.7624 176.314 2.47104e-009 28.5636 -0.966308 43.2929 10.9964 -106.679 -22.6695 9.65299 -5.3622 130.977 1.57859 -53.992 7.10543e-015 25.813 1.69102 1.26618 -86.7341 0.605594 -3.78428e-006 28.5636 -0.966296 -35.8638 23.4031 92.8309 1.04592e-011 23.1438 -0.944994 1.85735 0.380222 14.3305 -2.72848e-012 20.8625 4.12737 0.196775 -0.834049 14.2462 4.37076e-007 7.55201 -7.58201 -1.13927e-010 -0.585768 6.39548e-011 
1.91849 25.0269 3.23987 -90 -3.50835e-015 -90 0 0 0 -177.313 0.303084 0.245007 -1.49012e-007 42.8363 -0.548136 -0.531363 -2.00347 5.03913 -9.69015e-007 44.0461 -3.28882 -0.798951 1.74413 0.97245 6.53757e-007 34.1929 -2.46661 5.29835 12.6367 6.44403 7.00259e-006 30.0959 -1.75404 4.53073 15.0369 -3.57946 -9.12855e-006 28.3637 -1.75404 7.62842 14.5697 2.57781 9.67449e-006 31.6071 -3.20431 4.90688 8.2283 -13.2366 -27.891 13.5892 3.92723 120.667 -16.6988 -49.5905 -3.95154e-006 28.01 1.8232 144.47 -86.4882 124.317 1.08611e-005 24.3992 -2.49173 -154.315 55.8339 -166.407 27.891 13.5892 3.92714 -91.6358 -17.3138 62.5132 -1.41e-006 28.0098 1.82319 -3.60417 -60.9662 14.8251 -4.56938e-006 24.3992 -2.49173 137.926 71.5525 168.138 6.07684e-007 2.15392 -3.55271e-015 -4.26278 0.0699894 -1.16461 4.44089e-016 62.0609 0.472498 -4.77688e-011 -4.96962e-016 4.77686e-011 22.6695 9.653 -5.36221 -160.502 1.47662 41.1595 -7.6294e-006 25.813 1.69098 179.778 -60.5768 176.357 1.76119e-009 28.5636 -0.966308 43.1416 11.252 -106.699 -22.6695 9.65299 -5.3622 130.929 1.73992 -54.0005 7.10543e-015 25.813 1.69102 1.36731 -86.7403 0.62711 -3.78422e-006 28.5636 -0.966296 -35.8267 23.4935 92.6961 1.04592e-011 23.1438 -0.944994 1.78747 0.572381 14.4324 -2.72848e-012 20.8625 4.12737 0.155159 -0.801797 14.512 4.43178e-007 7.55201 -7.58201 -1.00191e-005 -0.948132 -1.5891e-007 
1.89242 25.0084 3.21928 -90 -3.50835e-015 -90 0 0 0 -177.258 0.399329 0.246105 -1.49012e-007 42.8363 -0.548136 -0.574085 -1.92719 5.17904 -9.91228e-007 44.0461 -3.28882 -0.845593 1.71269 1.01183 6.07579e-007 34.1929 -2.46661 5.24898 12.6641 6.45377 6.9461e-006 30.0959 -1.75404 4.47059 15.2014 -3.65281 -9.21473e-006 28.3637 -1.75404 7.57178 14.5773 2.59486 9.55935e-006 31.6071 -3.20431 4.88784 8.40262 -13.2724 -27.891 13.5892 3.92723 120.639 -16.616 -49.59 -3.9582e-006 28.01 1.8232 144.47 -86.4882 124.317 1.08707e-005 24.3992 -2.49173 -154.308 55.8723 -166.406 27.891 13.5892 3.92714 -91.726 -17.2717 62.4896 -1.39638e-006 28.0098 1.82319 -3.68147 -61.0938 14.7847 -4.56475e-006 24.3992 -2.49173 137.952 71.4787 168.138 6.07684e-007 2.15392 -3.55271e-015 -4.30023 -0.00548997 -1.27098 -4.44089e-016 62.0609 0.472498 0 3.05631e-015 -0 22.6695 9.653 -5.36221 -160.432 1.49728 41.1869 -7.6294e-006 25.813 1.69098 179.776 -60.4835 176.4 1.05909e-009 28.5636 -0.966308 43.1493 11.3532 -106.721 -22.6695 9.65299 -5.3622 130.885 1.81601 -54.0015 1.42109e-014 25.813 1.69102 1.46517 -86.7454 0.646813 -3.78415e-006 28.5636 -0.966296 -35.7804 23.5435 92.6195 1.04601e-011 23.1438 -0.944994 1.72139 0.602453 14.5334 -2.72848e-012 20.8625 4.12737 0.115674 -0.772015 14.5365 4.42668e-007 7.55201 -7.58201 1.99321e-007 -1.14006 1.00198e-005 
1.8661 24.9897 3.19848 -90 -3.50835e-015 -90 0 0 0 -177.21 0.483479 0.247338 -1.49012e-007 42.8363 -0.548136 -0.612401 -1.85839 5.18559 -1.00891e-006 44.0461 -3.28882 -0.882618 1.67593 1.05737 5.71097e-007 34.1929 -2.46661 5.17898 12.704 6.46758 6.88985e-006 30.0959 -1.75404 4.43492 15.2129 -3.71379 -9.28499e-006 28.3637 -1.75404 7.53141 14.5827 2.60831 9.47209e-006 31.6071 -3.20431 4.86184 8.3911 -13.2964 -27.891 13.5892 3.92723 120.611 -16.5419 -49.5905 -3.96393e-006 28.01 1.8232 144.446 -86.4563 124.211 1.08705e-005 24.3992 -2.49173 -154.294 55.9501 -166.405 27.891 13.5892 3.92714 -91.8226 -17.2421 62.4642 -1.38182e-006 28.0098 1.82319 -3.75694 -61.2171 14.7449 -4.55912e-006 24.3992 -2.49173 137.966 71.4262 168.144 6.07684e-007 2.15392 0 -4.30023 -0.00549031 -1.27098 4.44089e-016 62.0609 0.472498 7.95139e-016 2.07481e-015 7.95139e-016 22.6695 9.653 -5.36221 -160.353 1.51894 41.2188 -7.6294e-006 25.813 1.69098 179.773 -60.3896 176.444 3.31539e-010 28.5636 -0.966308 43.1572 11.4626 -106.745 -22.6695 9.65299 -5.3622 130.855 1.89884 -54.003 7.10543e-015 25.813 1.69102 1.56602 -86.7505 0.668747 -3.78408e-006 28.5636 -0.966296 -35.7514 23.5948 92.541 1.04601e-011 23.1438 -0.944994 1.65106 0.630773 14.6413 -2.72848e-012 20.8625 4.12737 0.0901827 -0.747721 14.5542 4.42392e-007 7.55201 -7.58201 7.00288e-013 -1.3298 2.86677e-011 
1.83952 24.9709 3.17748 -90 -3.50835e-015 -90 0 0 0 -177.172 0.496462 0.250488 -1.49012e-007 42.8363 -0.548136 -0.650745 -1.78978 5.1936 -1.02663e-006 44.0461 -3.28882 -0.920858 1.64577 1.10765 5.33951e-007 34.1929 -2.46661 5.12561 12.7259 6.47896 6.83877e-006 30.0959 -1.75404 4.39102 15.2244 -3.78953 -9.35473e-006 28.3637 -1.75404 7.53062 14.5828 2.60857 9.40738e-006 31.6071 -3.20431 4.86151 8.39088 -13.2967 -27.891 13.5892 3.92723 120.576 -16.4505 -49.5911 -3.97095e-006 28.01 1.8232 144.403 -86.4408 124.131 1.08776e-005 24.3992 -2.49173 -154.287 55.9898 -166.405 27.891 13.5892 3.92714 -91.9117 -17.2147 62.4408 -1.36841e-006 28.0098 1.82319 -3.80097 -61.3524 14.726 -4.55446e-006 24.3992 -2.49173 138.008 71.3605 168.121 6.07684e-007 2.15392 -3.55271e-015 -4.35121 -0.0229371 -1.28604 4.44089e-016 62.0609 0.472498 7.95139e-016 -2.52208e-015 1.98785e-016 22.6695 9.653 -5.36221 -160.288 1.53662 41.2341 -7.6294e-006 25.813 1.69098 179.771 -60.3005 176.445 -2.94307e-011 28.5636 -0.966308 43.1651 11.5659 -106.768 -22.6695 9.65299 -5.3622 130.827 1.97388 -54.0043 -2.13163e-014 25.813 1.69102 1.66698 -86.7557 0.690022 -3.78401e-006 28.5636 -0.966296 -35.7265 23.6411 92.47 1.04592e-011 23.1438 -0.944994 1.57704 0.66039 14.7542 -2.72848e-012 20.8625 4.12737 0.0608029 -0.708382 14.5817 4.42271e-007 7.55201 -7.58201 9.95148e-015 -1.52553 1.04996e-013 
